<svg viewBox="0 0 330 200" xmlns="http://www.w3.org/2000/svg"><g><g><g><g><g><line x1="60" y1="178" x2="55" y2="178" style="visibility: inherit;" fill="rgb(0, 0, 0)" stroke="rgb(204, 204, 204)" stroke-width="1px"></line><line x1="60" y1="158.22222222222223" x2="55" y2="158.22222222222223" style="visibility: inherit;" fill="rgb(0, 0, 0)" stroke="rgb(204, 204, 204)" stroke-width="1px"></line><line x1="60" y1="138.44444444444446" x2="55" y2="138.44444444444446" style="visibility: inherit;" fill="rgb(0, 0, 0)" stroke="rgb(204, 204, 204)" stroke-width="1px"></line><line x1="60" y1="118.66666666666667" x2="55" y2="118.66666666666667" style="visibility: inherit;" fill="rgb(0, 0, 0)" stroke="rgb(204, 204, 204)" stroke-width="1px"></line><line x1="60" y1="98.88888888888889" x2="55" y2="98.88888888888889" style="visibility: inherit;" fill="rgb(0, 0, 0)" stroke="rgb(204, 204, 204)" stroke-width="1px"></line><line x1="60" y1="79.1111111111111" x2="55" y2="79.1111111111111" style="visibility: inherit;" fill="rgb(0, 0, 0)" stroke="rgb(204, 204, 204)" stroke-width="1px"></line><line x1="60" y1="59.333333333333314" x2="55" y2="59.333333333333314" style="visibility: inherit;" fill="rgb(0, 0, 0)" stroke="rgb(204, 204, 204)" stroke-width="1px"></line><line x1="60" y1="39.55555555555557" x2="55" y2="39.55555555555557" style="visibility: inherit;" fill="rgb(0, 0, 0)" stroke="rgb(204, 204, 204)" stroke-width="1px"></line><line x1="60" y1="19.77777777777777" x2="55" y2="19.77777777777777" style="visibility: inherit;" fill="rgb(0, 0, 0)" stroke="rgb(204, 204, 204)" stroke-width="1px"></line><line x1="60" y1="0" x2="55" y2="0" style="visibility: inherit;" fill="rgb(0, 0, 0)" stroke="rgb(204, 204, 204)" stroke-width="1px"></line></g><g transform="translate(50, 0)"><text x="0" y="178" dx="0em" dy="0.3em" style="text-anchor: end; visibility: hidden; font-family: &quot;Helvetica Neue&quot;, sans-serif; font-size: 12px; font-weight: 200;" fill="rgb(50, 49, 63)" stroke="none" stroke-width="1px">-5e-3</text><text x="0" y="158.22222222222223" dx="0em" dy="0.3em" style="text-anchor: end; visibility: inherit; font-family: &quot;Helvetica Neue&quot;, sans-serif; font-size: 12px; font-weight: 200;" fill="rgb(50, 49, 63)" stroke="none" stroke-width="1px">0</text><text x="0" y="138.44444444444446" dx="0em" dy="0.3em" style="text-anchor: end; visibility: hidden; font-family: &quot;Helvetica Neue&quot;, sans-serif; font-size: 12px; font-weight: 200;" fill="rgb(50, 49, 63)" stroke="none" stroke-width="1px">5e-3</text><text x="0" y="118.66666666666667" dx="0em" dy="0.3em" style="text-anchor: end; visibility: inherit; font-family: &quot;Helvetica Neue&quot;, sans-serif; font-size: 12px; font-weight: 200;" fill="rgb(50, 49, 63)" stroke="none" stroke-width="1px">0.01</text><text x="0" y="98.88888888888889" dx="0em" dy="0.3em" style="text-anchor: end; visibility: hidden; font-family: &quot;Helvetica Neue&quot;, sans-serif; font-size: 12px; font-weight: 200;" fill="rgb(50, 49, 63)" stroke="none" stroke-width="1px">0.015</text><text x="0" y="79.1111111111111" dx="0em" dy="0.3em" style="text-anchor: end; visibility: inherit; font-family: &quot;Helvetica Neue&quot;, sans-serif; font-size: 12px; font-weight: 200;" fill="rgb(50, 49, 63)" stroke="none" stroke-width="1px">0.02</text><text x="0" y="59.333333333333314" dx="0em" dy="0.3em" style="text-anchor: end; visibility: hidden; font-family: &quot;Helvetica Neue&quot;, sans-serif; font-size: 12px; font-weight: 200;" fill="rgb(50, 49, 63)" stroke="none" stroke-width="1px">0.025</text><text x="0" y="39.55555555555557" dx="0em" dy="0.3em" style="text-anchor: end; visibility: inherit; font-family: &quot;Helvetica Neue&quot;, sans-serif; font-size: 12px; font-weight: 200;" fill="rgb(50, 49, 63)" stroke="none" stroke-width="1px">0.03</text><text x="0" y="19.77777777777777" dx="0em" dy="0.3em" style="text-anchor: end; visibility: hidden; font-family: &quot;Helvetica Neue&quot;, sans-serif; font-size: 12px; font-weight: 200;" fill="rgb(50, 49, 63)" stroke="none" stroke-width="1px">0.035</text><text x="0" y="0" dx="0em" dy="0.3em" style="text-anchor: end; visibility: hidden; font-family: &quot;Helvetica Neue&quot;, sans-serif; font-size: 12px; font-weight: 200;" fill="rgb(50, 49, 63)" stroke="none" stroke-width="1px">0.04</text></g><line x1="60" y1="0" x2="60" y2="178" fill="rgb(0, 0, 0)" stroke="rgb(204, 204, 204)" stroke-width="1px"></line></g></g><g transform="translate(60, 0)" clip-path="url(#clip_0)"><clipPath id="clip_0"><rect width="270" height="178"></rect></clipPath><g><g><g><line x1="0" y1="0" x2="0" y2="178" fill="rgb(0, 0, 0)" stroke="rgb(60, 60, 60)" stroke-width="1px" opacity="0.25"></line><line x1="24.545454545454547" y1="0" x2="24.545454545454547" y2="178" fill="rgb(0, 0, 0)" stroke="rgb(60, 60, 60)" stroke-width="1px" opacity="0.25"></line><line x1="49.09090909090909" y1="0" x2="49.09090909090909" y2="178" fill="rgb(0, 0, 0)" stroke="rgb(60, 60, 60)" stroke-width="1px" opacity="0.25"></line><line x1="73.63636363636363" y1="0" x2="73.63636363636363" y2="178" fill="rgb(0, 0, 0)" stroke="rgb(60, 60, 60)" stroke-width="1px" opacity="0.25"></line><line x1="98.18181818181819" y1="0" x2="98.18181818181819" y2="178" fill="rgb(0, 0, 0)" stroke="rgb(60, 60, 60)" stroke-width="1px" opacity="0.25"></line><line x1="122.72727272727272" y1="0" x2="122.72727272727272" y2="178" fill="rgb(0, 0, 0)" stroke="rgb(60, 60, 60)" stroke-width="1px" opacity="0.25"></line><line x1="147.27272727272725" y1="0" x2="147.27272727272725" y2="178" fill="rgb(0, 0, 0)" stroke="rgb(60, 60, 60)" stroke-width="1px" opacity="0.25"></line><line x1="171.8181818181818" y1="0" x2="171.8181818181818" y2="178" fill="rgb(0, 0, 0)" stroke="rgb(60, 60, 60)" stroke-width="1px" opacity="0.25"></line><line x1="196.36363636363637" y1="0" x2="196.36363636363637" y2="178" fill="rgb(0, 0, 0)" stroke="rgb(60, 60, 60)" stroke-width="1px" opacity="0.25"></line><line x1="220.90909090909093" y1="0" x2="220.90909090909093" y2="178" fill="rgb(0, 0, 0)" stroke="rgb(60, 60, 60)" stroke-width="1px" opacity="0.25"></line><line x1="245.45454545454544" y1="0" x2="245.45454545454544" y2="178" fill="rgb(0, 0, 0)" stroke="rgb(60, 60, 60)" stroke-width="1px" opacity="0.25"></line><line x1="270" y1="0" x2="270" y2="178" fill="rgb(0, 0, 0)" stroke="rgb(60, 60, 60)" stroke-width="1px" opacity="0.25"></line></g><g><line x1="0" y1="178" x2="270" y2="178" fill="rgb(0, 0, 0)" stroke="rgb(60, 60, 60)" stroke-width="1px" opacity="0.25"></line><line x1="0" y1="158.22222222222223" x2="270" y2="158.22222222222223" fill="rgb(0, 0, 0)" stroke="rgb(60, 60, 60)" stroke-width="1px" opacity="0.25"></line><line x1="0" y1="138.44444444444446" x2="270" y2="138.44444444444446" fill="rgb(0, 0, 0)" stroke="rgb(60, 60, 60)" stroke-width="1px" opacity="0.25"></line><line x1="0" y1="118.66666666666667" x2="270" y2="118.66666666666667" fill="rgb(0, 0, 0)" stroke="rgb(60, 60, 60)" stroke-width="1px" opacity="0.25"></line><line x1="0" y1="98.88888888888889" x2="270" y2="98.88888888888889" fill="rgb(0, 0, 0)" stroke="rgb(60, 60, 60)" stroke-width="1px" opacity="0.25"></line><line x1="0" y1="79.1111111111111" x2="270" y2="79.1111111111111" fill="rgb(0, 0, 0)" stroke="rgb(60, 60, 60)" stroke-width="1px" opacity="0.25"></line><line x1="0" y1="59.333333333333314" x2="270" y2="59.333333333333314" fill="rgb(0, 0, 0)" stroke="rgb(60, 60, 60)" stroke-width="1px" opacity="0.25"></line><line x1="0" y1="39.55555555555557" x2="270" y2="39.55555555555557" fill="rgb(0, 0, 0)" stroke="rgb(60, 60, 60)" stroke-width="1px" opacity="0.25"></line><line x1="0" y1="19.77777777777777" x2="270" y2="19.77777777777777" fill="rgb(0, 0, 0)" stroke="rgb(60, 60, 60)" stroke-width="1px" opacity="0.25"></line><line x1="0" y1="0" x2="270" y2="0" fill="rgb(0, 0, 0)" stroke="rgb(60, 60, 60)" stroke-width="1px" opacity="0.25"></line></g></g></g><g><g><line x1="0" y1="158.22222222222223" x2="270" y2="158.22222222222223" fill="rgb(0, 0, 0)" stroke="rgb(153, 153, 153)" stroke-width="1.5px"></line></g></g><g><g><line x1="24.545454545454547" y1="0" x2="24.545454545454547" y2="178" fill="rgb(0, 0, 0)" stroke="rgb(153, 153, 153)" stroke-width="1.5px"></line></g></g><g><g><g><g><g><path stroke="rgb(255, 112, 67)" stroke-width="2px" d="M29.405454545454546,48.06917953160075L34.31454545454545,53.68344496894214L39.223636363636366,56.9372795222838L44.13272727272727,60.97287182064326L51.447272727272725,67.21012284799092L56.35636363636364,67.0610682304194L61.265454545454546,68.49990709216064L66.17454545454545,67.06496485241253L73.4890909090909,73.76682158955151L78.39818181818183,80.51697705290462L83.30727272727273,84.16705794883374L88.21636363636362,89.08496412872255L95.53090909090909,90.41079526151938L100.44,92.6836101348464L105.3490909090909,93.23729234134589L110.25818181818182,100.20567204865145L117.57272727272726,106.00783080640896L122.48181818181817,110.27418326331886L127.39090909090909,114.40584750662995L132.3,105.17315176439757L139.61454545454544,114.70069913519947L144.52363636363634,116.20164571352267L149.43272727272728,119.02552639959183L154.34181818181818,121.72349830394634L161.65636363636364,126.70367266527249L166.56545454545457,132.84692114344887L171.47454545454545,132.85952921029568L176.38363636363636,127.22703435428409L183.69818181818184,131.7762006538439L188.60727272727274,133.82793783343556L193.51636363636365,131.9858089518662L198.42545454545456,134.37673636589605L205.74,135.8997585645265L210.64909090909092,142.71510782397766L215.55818181818182,144.22249124407114L220.46727272727273,141.67375481290247L227.78181818181818,146.3977831895865L232.6909090909091,146.7427326802072L237.6,147.9565994264766L242.5090909090909,149.5828917594553" style="fill: none;" fill="none"></path></g><g><path stroke="rgb(0, 119, 187)" stroke-width="2px" d="M29.405454545454546,48.10100841191081L34.31454545454545,52.37567492822808L39.223636363636366,57.475808298777025L44.13272727272727,62.191434506144304L51.447272727272725,66.83876650730171L56.35636363636364,70.28016984120575L61.265454545454546,72.98708871467333L66.17454545454545,75.22407254266378L73.4890909090909,77.24852567497585L78.39818181818183,78.75942210481742L83.30727272727273,80.16794268706825L88.21636363636362,81.26443234567562L95.53090909090909,81.6745674148032L100.44,81.85866817703892L105.3490909090909,82.32686091520675L110.25818181818182,82.96618007317969L117.57272727272726,82.42018095097458L122.48181818181817,81.58760057716935L127.39090909090909,81.35308331216343L132.3,81.07175519641524L139.61454545454544,78.5123101028668L144.52363636363634,76.98071363931598L149.43272727272728,75.40668387328965L154.34181818181818,74.29050919223185L161.65636363636364,69.83703276797075L166.56545454545457,66.42305202230652L171.47454545454545,63.45375075584637L176.38363636363636,62.5125462578938L183.69818181818184,57.940634205249864L188.60727272727274,52.98436657218352L193.51636363636365,48.89310634615072L198.42545454545456,47.13646700199445L205.74,42.239193157908375L210.64909090909092,36.867735012718185L215.55818181818182,33.98857677193399L220.46727272727273,31.716283413117424L227.78181818181818,26.103569143786956L232.6909090909091,21.794831341001412L237.6,19.23073719231155L242.5090909090909,18.272957369127255" style="fill: none;" fill="none"></path></g></g></g></g><g opacity="0.2"><g><g><g><path stroke="rgb(255, 112, 67)" stroke-width="2px" d="M29.405454545454546,48.06917953160075L34.31454545454545,57.05200423134697L39.223636363636366,60.06096069349182L44.13272727272727,65.71872836351395L51.447272727272725,75.35347778929604L56.35636363636364,66.85487203465567L61.265454545454546,70.55746968587238L66.17454545454545,64.97280529141426L73.4890909090909,83.65075850817892L78.39818181818183,90.54017122586568L83.30727272727273,89.60907332764731L88.21636363636362,96.43506037029955L95.53090909090909,92.39521289202902L100.44,96.08837976389461L105.3490909090909,94.06716481844583L110.25818181818182,110.65332696835199L117.57272727272726,114.70861366391182L122.48181818181817,116.67262872225709L127.39090909090909,120.6027144541343L132.3,91.32495205601056L139.61454545454544,128.9914976780613L144.52363636363634,118.45301619172096L149.43272727272728,123.26129167609744L154.34181818181818,125.77042420042885L161.65636363636364,134.1738988103138L166.56545454545457,142.0617676625649L171.47454545454545,132.8784412783053L176.38363636363636,118.77830071747303L183.69818181818184,138.5999459127585L188.60727272727274,136.9055424688591L193.51636363636365,129.2226162403822L198.42545454545456,137.96312701122628L205.74,138.18429168065387L210.64909090909092,152.93813122498491L215.55818181818182,146.48356630942888L220.46727272727273,137.85065023187133L227.78181818181818,153.48382568152414L232.6909090909091,147.2601569129361L237.6,149.77739953911967L242.5090909090909,152.0223302534885" style="fill: none;" fill="none"></path></g><g><path stroke="rgb(0, 119, 187)" stroke-width="2px" d="M29.405454545454546,48.10100841191081L34.31454545454545,54.94047483801842L39.223636363636366,62.371936334504014L44.13272727272727,67.73701092600822L51.447272727272725,72.90632316801283L56.35636363636364,75.04086955719522L61.265454545454546,76.85802601443396L66.17454545454545,78.48561643891863L73.4890909090909,80.23420081535974L78.39818181818183,81.00292721721861L83.30727272727273,82.26794838243059L88.21636363636362,82.90319978528551L95.53090909090909,82.28843085633383L100.44,82.13445864783392L105.3490909090909,83.02859967947006L110.25818181818182,83.92470791273645L117.57272727272726,81.60141331619685L122.48181818181817,80.33894140852821L127.39090909090909,81.00134314099947L132.3,80.64978873729706L139.61454545454544,74.6732828285959L144.52363636363634,74.68336934182379L149.43272727272728,73.04567030072212L154.34181818181818,72.61626039279831L161.65636363636364,63.15684978498352L166.56545454545457,61.302095462878526L171.47454545454545,58.99980645378429L176.38363636363636,61.10074095593558L183.69818181818184,51.08277033766112L188.60727272727274,45.549967861837814L193.51636363636365,42.75621736380788L198.42545454545456,44.50150833527249L205.74,34.893282976415435L210.64909090909092,28.810548179679444L215.55818181818182,29.6698395344946L220.46727272727273,28.307843433486113L227.78181818181818,17.68449782662921L232.6909090909091,15.331724676820954L237.6,15.384595983558228L242.5090909090909,16.836287637551635" style="fill: none;" fill="none"></path></g></g></g></g></g></g><g transform="translate(60, 178)" clip-path="url(#clip_1)"><clipPath id="clip_1"><rect width="270" height="22"></rect></clipPath><g><g><line x1="0" y1="0" x2="0" y2="5" style="visibility: inherit;" fill="rgb(0, 0, 0)" stroke="rgb(204, 204, 204)" stroke-width="1px"></line><line x1="24.545454545454547" y1="0" x2="24.545454545454547" y2="5" style="visibility: inherit;" fill="rgb(0, 0, 0)" stroke="rgb(204, 204, 204)" stroke-width="1px"></line><line x1="49.09090909090909" y1="0" x2="49.09090909090909" y2="5" style="visibility: inherit;" fill="rgb(0, 0, 0)" stroke="rgb(204, 204, 204)" stroke-width="1px"></line><line x1="73.63636363636363" y1="0" x2="73.63636363636363" y2="5" style="visibility: inherit;" fill="rgb(0, 0, 0)" stroke="rgb(204, 204, 204)" stroke-width="1px"></line><line x1="98.18181818181819" y1="0" x2="98.18181818181819" y2="5" style="visibility: inherit;" fill="rgb(0, 0, 0)" stroke="rgb(204, 204, 204)" stroke-width="1px"></line><line x1="122.72727272727272" y1="0" x2="122.72727272727272" y2="5" style="visibility: inherit;" fill="rgb(0, 0, 0)" stroke="rgb(204, 204, 204)" stroke-width="1px"></line><line x1="147.27272727272725" y1="0" x2="147.27272727272725" y2="5" style="visibility: inherit;" fill="rgb(0, 0, 0)" stroke="rgb(204, 204, 204)" stroke-width="1px"></line><line x1="171.8181818181818" y1="0" x2="171.8181818181818" y2="5" style="visibility: inherit;" fill="rgb(0, 0, 0)" stroke="rgb(204, 204, 204)" stroke-width="1px"></line><line x1="196.36363636363637" y1="0" x2="196.36363636363637" y2="5" style="visibility: inherit;" fill="rgb(0, 0, 0)" stroke="rgb(204, 204, 204)" stroke-width="1px"></line><line x1="220.90909090909093" y1="0" x2="220.90909090909093" y2="5" style="visibility: inherit;" fill="rgb(0, 0, 0)" stroke="rgb(204, 204, 204)" stroke-width="1px"></line><line x1="245.45454545454544" y1="0" x2="245.45454545454544" y2="5" style="visibility: inherit;" fill="rgb(0, 0, 0)" stroke="rgb(204, 204, 204)" stroke-width="1px"></line><line x1="270" y1="0" x2="270" y2="5" style="visibility: inherit;" fill="rgb(0, 0, 0)" stroke="rgb(204, 204, 204)" stroke-width="1px"></line></g><g transform="translate(0, 8)"><text x="0" y="0" dx="0em" dy="0.95em" style="text-anchor: middle; visibility: hidden; font-family: &quot;Helvetica Neue&quot;, sans-serif; font-size: 12px; font-weight: 200;" fill="rgb(50, 49, 63)" stroke="none" stroke-width="1px">-500</text><text x="24.545454545454547" y="0" dx="0em" dy="0.95em" style="text-anchor: middle; visibility: inherit; font-family: &quot;Helvetica Neue&quot;, sans-serif; font-size: 12px; font-weight: 200;" fill="rgb(50, 49, 63)" stroke="none" stroke-width="1px">0</text><text x="49.09090909090909" y="0" dx="0em" dy="0.95em" style="text-anchor: middle; visibility: inherit; font-family: &quot;Helvetica Neue&quot;, sans-serif; font-size: 12px; font-weight: 200;" fill="rgb(50, 49, 63)" stroke="none" stroke-width="1px">500</text><text x="73.63636363636363" y="0" dx="0em" dy="0.95em" style="text-anchor: middle; visibility: inherit; font-family: &quot;Helvetica Neue&quot;, sans-serif; font-size: 12px; font-weight: 200;" fill="rgb(50, 49, 63)" stroke="none" stroke-width="1px">1k</text><text x="98.18181818181819" y="0" dx="0em" dy="0.95em" style="text-anchor: middle; visibility: inherit; font-family: &quot;Helvetica Neue&quot;, sans-serif; font-size: 12px; font-weight: 200;" fill="rgb(50, 49, 63)" stroke="none" stroke-width="1px">1.5k</text><text x="122.72727272727272" y="0" dx="0em" dy="0.95em" style="text-anchor: middle; visibility: inherit; font-family: &quot;Helvetica Neue&quot;, sans-serif; font-size: 12px; font-weight: 200;" fill="rgb(50, 49, 63)" stroke="none" stroke-width="1px">2k</text><text x="147.27272727272725" y="0" dx="0em" dy="0.95em" style="text-anchor: middle; visibility: inherit; font-family: &quot;Helvetica Neue&quot;, sans-serif; font-size: 12px; font-weight: 200;" fill="rgb(50, 49, 63)" stroke="none" stroke-width="1px">2.5k</text><text x="171.8181818181818" y="0" dx="0em" dy="0.95em" style="text-anchor: middle; visibility: inherit; font-family: &quot;Helvetica Neue&quot;, sans-serif; font-size: 12px; font-weight: 200;" fill="rgb(50, 49, 63)" stroke="none" stroke-width="1px">3k</text><text x="196.36363636363637" y="0" dx="0em" dy="0.95em" style="text-anchor: middle; visibility: inherit; font-family: &quot;Helvetica Neue&quot;, sans-serif; font-size: 12px; font-weight: 200;" fill="rgb(50, 49, 63)" stroke="none" stroke-width="1px">3.5k</text><text x="220.90909090909093" y="0" dx="0em" dy="0.95em" style="text-anchor: middle; visibility: inherit; font-family: &quot;Helvetica Neue&quot;, sans-serif; font-size: 12px; font-weight: 200;" fill="rgb(50, 49, 63)" stroke="none" stroke-width="1px">4k</text><text x="245.45454545454544" y="0" dx="0em" dy="0.95em" style="text-anchor: middle; visibility: inherit; font-family: &quot;Helvetica Neue&quot;, sans-serif; font-size: 12px; font-weight: 200;" fill="rgb(50, 49, 63)" stroke="none" stroke-width="1px">4.5k</text><text x="270" y="0" dx="0em" dy="0.95em" style="text-anchor: middle; visibility: hidden; font-family: &quot;Helvetica Neue&quot;, sans-serif; font-size: 12px; font-weight: 200;" fill="rgb(50, 49, 63)" stroke="none" stroke-width="1px">5k</text></g><line x1="0" y1="0" x2="270" y2="0" fill="rgb(0, 0, 0)" stroke="rgb(204, 204, 204)" stroke-width="1px"></line></g></g></g></g></svg>