<svg viewBox="0 0 330 200" xmlns="http://www.w3.org/2000/svg"><g><g><g><g><g><line x1="40" y1="178" x2="35" y2="178" style="visibility: inherit;" fill="rgb(0, 0, 0)" stroke="rgb(204, 204, 204)" stroke-width="1px"></line><line x1="40" y1="163.16666666666666" x2="35" y2="163.16666666666666" style="visibility: inherit;" fill="rgb(0, 0, 0)" stroke="rgb(204, 204, 204)" stroke-width="1px"></line><line x1="40" y1="148.33333333333334" x2="35" y2="148.33333333333334" style="visibility: inherit;" fill="rgb(0, 0, 0)" stroke="rgb(204, 204, 204)" stroke-width="1px"></line><line x1="40" y1="133.5" x2="35" y2="133.5" style="visibility: inherit;" fill="rgb(0, 0, 0)" stroke="rgb(204, 204, 204)" stroke-width="1px"></line><line x1="40" y1="118.66666666666667" x2="35" y2="118.66666666666667" style="visibility: inherit;" fill="rgb(0, 0, 0)" stroke="rgb(204, 204, 204)" stroke-width="1px"></line><line x1="40" y1="103.83333333333333" x2="35" y2="103.83333333333333" style="visibility: inherit;" fill="rgb(0, 0, 0)" stroke="rgb(204, 204, 204)" stroke-width="1px"></line><line x1="40" y1="89" x2="35" y2="89" style="visibility: inherit;" fill="rgb(0, 0, 0)" stroke="rgb(204, 204, 204)" stroke-width="1px"></line><line x1="40" y1="74.16666666666666" x2="35" y2="74.16666666666666" style="visibility: inherit;" fill="rgb(0, 0, 0)" stroke="rgb(204, 204, 204)" stroke-width="1px"></line><line x1="40" y1="59.33333333333334" x2="35" y2="59.33333333333334" style="visibility: inherit;" fill="rgb(0, 0, 0)" stroke="rgb(204, 204, 204)" stroke-width="1px"></line><line x1="40" y1="44.5" x2="35" y2="44.5" style="visibility: inherit;" fill="rgb(0, 0, 0)" stroke="rgb(204, 204, 204)" stroke-width="1px"></line><line x1="40" y1="29.666666666666657" x2="35" y2="29.666666666666657" style="visibility: inherit;" fill="rgb(0, 0, 0)" stroke="rgb(204, 204, 204)" stroke-width="1px"></line><line x1="40" y1="14.833333333333343" x2="35" y2="14.833333333333343" style="visibility: inherit;" fill="rgb(0, 0, 0)" stroke="rgb(204, 204, 204)" stroke-width="1px"></line><line x1="40" y1="0" x2="35" y2="0" style="visibility: inherit;" fill="rgb(0, 0, 0)" stroke="rgb(204, 204, 204)" stroke-width="1px"></line></g><g transform="translate(30, 0)"><text x="0" y="178" dx="0em" dy="0.3em" style="text-anchor: end; visibility: hidden; font-family: &quot;Helvetica Neue&quot;, sans-serif; font-size: 12px; font-weight: 200;" fill="rgb(50, 49, 63)" stroke="none" stroke-width="1px">-10</text><text x="0" y="163.16666666666666" dx="0em" dy="0.3em" style="text-anchor: end; visibility: inherit; font-family: &quot;Helvetica Neue&quot;, sans-serif; font-size: 12px; font-weight: 200;" fill="rgb(50, 49, 63)" stroke="none" stroke-width="1px">0</text><text x="0" y="148.33333333333334" dx="0em" dy="0.3em" style="text-anchor: end; visibility: hidden; font-family: &quot;Helvetica Neue&quot;, sans-serif; font-size: 12px; font-weight: 200;" fill="rgb(50, 49, 63)" stroke="none" stroke-width="1px">10</text><text x="0" y="133.5" dx="0em" dy="0.3em" style="text-anchor: end; visibility: inherit; font-family: &quot;Helvetica Neue&quot;, sans-serif; font-size: 12px; font-weight: 200;" fill="rgb(50, 49, 63)" stroke="none" stroke-width="1px">20</text><text x="0" y="118.66666666666667" dx="0em" dy="0.3em" style="text-anchor: end; visibility: hidden; font-family: &quot;Helvetica Neue&quot;, sans-serif; font-size: 12px; font-weight: 200;" fill="rgb(50, 49, 63)" stroke="none" stroke-width="1px">30</text><text x="0" y="103.83333333333333" dx="0em" dy="0.3em" style="text-anchor: end; visibility: inherit; font-family: &quot;Helvetica Neue&quot;, sans-serif; font-size: 12px; font-weight: 200;" fill="rgb(50, 49, 63)" stroke="none" stroke-width="1px">40</text><text x="0" y="89" dx="0em" dy="0.3em" style="text-anchor: end; visibility: hidden; font-family: &quot;Helvetica Neue&quot;, sans-serif; font-size: 12px; font-weight: 200;" fill="rgb(50, 49, 63)" stroke="none" stroke-width="1px">50</text><text x="0" y="74.16666666666666" dx="0em" dy="0.3em" style="text-anchor: end; visibility: inherit; font-family: &quot;Helvetica Neue&quot;, sans-serif; font-size: 12px; font-weight: 200;" fill="rgb(50, 49, 63)" stroke="none" stroke-width="1px">60</text><text x="0" y="59.33333333333334" dx="0em" dy="0.3em" style="text-anchor: end; visibility: hidden; font-family: &quot;Helvetica Neue&quot;, sans-serif; font-size: 12px; font-weight: 200;" fill="rgb(50, 49, 63)" stroke="none" stroke-width="1px">70</text><text x="0" y="44.5" dx="0em" dy="0.3em" style="text-anchor: end; visibility: inherit; font-family: &quot;Helvetica Neue&quot;, sans-serif; font-size: 12px; font-weight: 200;" fill="rgb(50, 49, 63)" stroke="none" stroke-width="1px">80</text><text x="0" y="29.666666666666657" dx="0em" dy="0.3em" style="text-anchor: end; visibility: hidden; font-family: &quot;Helvetica Neue&quot;, sans-serif; font-size: 12px; font-weight: 200;" fill="rgb(50, 49, 63)" stroke="none" stroke-width="1px">90</text><text x="0" y="14.833333333333343" dx="0em" dy="0.3em" style="text-anchor: end; visibility: inherit; font-family: &quot;Helvetica Neue&quot;, sans-serif; font-size: 12px; font-weight: 200;" fill="rgb(50, 49, 63)" stroke="none" stroke-width="1px">100</text><text x="0" y="0" dx="0em" dy="0.3em" style="text-anchor: end; visibility: hidden; font-family: &quot;Helvetica Neue&quot;, sans-serif; font-size: 12px; font-weight: 200;" fill="rgb(50, 49, 63)" stroke="none" stroke-width="1px">110</text></g><line x1="40" y1="0" x2="40" y2="178" fill="rgb(0, 0, 0)" stroke="rgb(204, 204, 204)" stroke-width="1px"></line></g></g><g transform="translate(40, 0)" clip-path="url(#clip_0)"><clipPath id="clip_0"><rect width="290" height="178"></rect></clipPath><g><g><g><line x1="0" y1="0" x2="0" y2="178" fill="rgb(0, 0, 0)" stroke="rgb(60, 60, 60)" stroke-width="1px" opacity="0.25"></line><line x1="22.30769230769231" y1="0" x2="22.30769230769231" y2="178" fill="rgb(0, 0, 0)" stroke="rgb(60, 60, 60)" stroke-width="1px" opacity="0.25"></line><line x1="44.61538461538462" y1="0" x2="44.61538461538462" y2="178" fill="rgb(0, 0, 0)" stroke="rgb(60, 60, 60)" stroke-width="1px" opacity="0.25"></line><line x1="66.92307692307692" y1="0" x2="66.92307692307692" y2="178" fill="rgb(0, 0, 0)" stroke="rgb(60, 60, 60)" stroke-width="1px" opacity="0.25"></line><line x1="89.23076923076924" y1="0" x2="89.23076923076924" y2="178" fill="rgb(0, 0, 0)" stroke="rgb(60, 60, 60)" stroke-width="1px" opacity="0.25"></line><line x1="111.53846153846155" y1="0" x2="111.53846153846155" y2="178" fill="rgb(0, 0, 0)" stroke="rgb(60, 60, 60)" stroke-width="1px" opacity="0.25"></line><line x1="133.84615384615384" y1="0" x2="133.84615384615384" y2="178" fill="rgb(0, 0, 0)" stroke="rgb(60, 60, 60)" stroke-width="1px" opacity="0.25"></line><line x1="156.15384615384616" y1="0" x2="156.15384615384616" y2="178" fill="rgb(0, 0, 0)" stroke="rgb(60, 60, 60)" stroke-width="1px" opacity="0.25"></line><line x1="178.46153846153848" y1="0" x2="178.46153846153848" y2="178" fill="rgb(0, 0, 0)" stroke="rgb(60, 60, 60)" stroke-width="1px" opacity="0.25"></line><line x1="200.76923076923077" y1="0" x2="200.76923076923077" y2="178" fill="rgb(0, 0, 0)" stroke="rgb(60, 60, 60)" stroke-width="1px" opacity="0.25"></line><line x1="223.0769230769231" y1="0" x2="223.0769230769231" y2="178" fill="rgb(0, 0, 0)" stroke="rgb(60, 60, 60)" stroke-width="1px" opacity="0.25"></line><line x1="245.3846153846154" y1="0" x2="245.3846153846154" y2="178" fill="rgb(0, 0, 0)" stroke="rgb(60, 60, 60)" stroke-width="1px" opacity="0.25"></line><line x1="267.6923076923077" y1="0" x2="267.6923076923077" y2="178" fill="rgb(0, 0, 0)" stroke="rgb(60, 60, 60)" stroke-width="1px" opacity="0.25"></line><line x1="290" y1="0" x2="290" y2="178" fill="rgb(0, 0, 0)" stroke="rgb(60, 60, 60)" stroke-width="1px" opacity="0.25"></line></g><g><line x1="0" y1="178" x2="290" y2="178" fill="rgb(0, 0, 0)" stroke="rgb(60, 60, 60)" stroke-width="1px" opacity="0.25"></line><line x1="0" y1="163.16666666666666" x2="290" y2="163.16666666666666" fill="rgb(0, 0, 0)" stroke="rgb(60, 60, 60)" stroke-width="1px" opacity="0.25"></line><line x1="0" y1="148.33333333333334" x2="290" y2="148.33333333333334" fill="rgb(0, 0, 0)" stroke="rgb(60, 60, 60)" stroke-width="1px" opacity="0.25"></line><line x1="0" y1="133.5" x2="290" y2="133.5" fill="rgb(0, 0, 0)" stroke="rgb(60, 60, 60)" stroke-width="1px" opacity="0.25"></line><line x1="0" y1="118.66666666666667" x2="290" y2="118.66666666666667" fill="rgb(0, 0, 0)" stroke="rgb(60, 60, 60)" stroke-width="1px" opacity="0.25"></line><line x1="0" y1="103.83333333333333" x2="290" y2="103.83333333333333" fill="rgb(0, 0, 0)" stroke="rgb(60, 60, 60)" stroke-width="1px" opacity="0.25"></line><line x1="0" y1="89" x2="290" y2="89" fill="rgb(0, 0, 0)" stroke="rgb(60, 60, 60)" stroke-width="1px" opacity="0.25"></line><line x1="0" y1="74.16666666666666" x2="290" y2="74.16666666666666" fill="rgb(0, 0, 0)" stroke="rgb(60, 60, 60)" stroke-width="1px" opacity="0.25"></line><line x1="0" y1="59.33333333333334" x2="290" y2="59.33333333333334" fill="rgb(0, 0, 0)" stroke="rgb(60, 60, 60)" stroke-width="1px" opacity="0.25"></line><line x1="0" y1="44.5" x2="290" y2="44.5" fill="rgb(0, 0, 0)" stroke="rgb(60, 60, 60)" stroke-width="1px" opacity="0.25"></line><line x1="0" y1="29.666666666666657" x2="290" y2="29.666666666666657" fill="rgb(0, 0, 0)" stroke="rgb(60, 60, 60)" stroke-width="1px" opacity="0.25"></line><line x1="0" y1="14.833333333333343" x2="290" y2="14.833333333333343" fill="rgb(0, 0, 0)" stroke="rgb(60, 60, 60)" stroke-width="1px" opacity="0.25"></line><line x1="0" y1="0" x2="290" y2="0" fill="rgb(0, 0, 0)" stroke="rgb(60, 60, 60)" stroke-width="1px" opacity="0.25"></line></g></g></g><g><g><line x1="0" y1="163.16666666666666" x2="290" y2="163.16666666666666" fill="rgb(0, 0, 0)" stroke="rgb(153, 153, 153)" stroke-width="1.5px"></line></g></g><g><g><line x1="22.30769230769231" y1="0" x2="22.30769230769231" y2="178" fill="rgb(0, 0, 0)" stroke="rgb(153, 153, 153)" stroke-width="1.5px"></line></g></g><g><g><g><g><g><path stroke="rgb(204, 51, 17)" stroke-width="2px" d="M26.724615384615387,114.49479166666667L31.186153846153847,113.04622395833333L36.76307692307692,107.28151573129252L41.22461538461538,99.4126455269608L46.801538461538456,96.90690781864446L51.26307692307692,95.0480424694549L56.84,88.26712828228293L61.30153846153846,85.73652250992023L66.87846153846154,75.81694703991639L71.34,70.395931080104L76.91692307692307,67.16437632922987L81.37846153846154,66.6266218898398L86.95538461538462,58.414205481453024L91.41692307692307,54.88534125725377L96.99384615384616,54.16107254741344L101.45538461538462,53.726729328785666L107.0323076923077,49.75724069544873L111.49384615384615,45.52162258141044L117.07076923076923,41.12624737904389L121.5323076923077,41.270545369856166L127.10923076923076,38.57580977429865L131.57076923076923,34.641267410795535L137.14769230769232,34.598301773831366L141.60923076923078,33.64543488258545L147.18615384615384,31.683088683877827L151.64769230769232,30.04214207783832L157.2246153846154,30.448202328968392L161.68615384615384,28.837670408362698L167.26307692307694,30.18906107627967L171.7246153846154,29.60926985092442L177.30153846153848,26.943686556980083L181.7630769230769,28.125587028251516L187.34,31.152435694822202L191.80153846153846,28.79666968273122L197.37846153846155,31.091543515755887L201.83999999999997,27.833051075844082L207.41692307692307,26.3414973029424L211.87846153846155,27.300731718660586L217.45538461538462,26.94918903041315L221.9169230769231,26.738263417965925L227.49384615384614,28.929416385870326L231.95538461538462,29.31702483170872L237.53230769230768,30.013131565892877L241.99384615384616,26.722462272298998L247.5707692307692,27.065769030081753L252.03230769230768,28.662378084815316L257.6092307692308,26.839093517487612L262.0707692307692,26.208664443811728L267.6476923076923,25.830406999615292L272.10923076923075,25.139910866430256" style="fill: none;" fill="none"></path></g><g><path stroke="rgb(51, 187, 238)" stroke-width="2px" d="M26.724615384615387,124.47640492121377L31.186153846153847,117.16514666477838L36.76307692307692,111.99554196636693L41.22461538461538,108.45158631789917L46.801538461538456,105.40688670948371L51.26307692307692,102.65503790537771L56.84,100.51010807940852L61.30153846153846,98.57274951676521L66.87846153846154,96.96369906608787L71.34,95.49302736089709L76.91692307692307,94.35082384195033L81.37846153846154,93.03020008481546L86.95538461538462,92.1072204633054L91.41692307692307,91.51283840911053L96.99384615384616,90.64370193754492L101.45538461538462,90.06459505716032L107.0323076923077,89.4857174603013L111.49384615384615,88.81600138603343L117.07076923076923,88.57956803748287L121.5323076923077,88.21449612112228L127.10923076923076,87.96239270381658L131.57076923076923,87.73672889128152L137.14769230769232,87.39465194794049L141.60923076923078,87.37955329407984L147.18615384615384,87.37049414755121L151.64769230769232,87.46426309949254L157.2246153846154,87.38825189404072L161.68615384615384,87.35091111512128L167.26307692307694,87.44424726498653L171.7246153846154,87.2605018706167L177.30153846153848,87.17505459512607L181.7630769230769,87.14032028075982L187.34,87.16908408674024L191.80153846153846,87.09540400217921L197.37846153846155,87.02639375713616L201.83999999999997,86.94365137285372L207.41692307692307,87.03454869882717L211.87846153846155,86.93201029598262L217.45538461538462,87.02756405235488L221.9169230769231,87.01049198363619L227.49384615384614,86.98371470004791L231.95538461538462,86.90977804993295L237.53230769230768,86.92328633985136L241.99384615384616,86.81565075388403L247.5707692307692,86.85854180934987L252.03230769230768,86.90081048498593L257.6092307692308,86.83523332569777L262.0707692307692,86.88682539479319L267.6476923076923,86.82684227158376L272.10923076923075,86.70817992247892" style="fill: none;" fill="none"></path></g></g></g></g><g opacity="0.2"><g><g><g><path stroke="rgb(204, 51, 17)" stroke-width="2px" d="M26.724615384615387,114.49479166666667L31.186153846153847,112.17708333333333L36.76307692307692,101.74739583333333L41.22461538461538,90.15885416666667L46.801538461538456,93.63541666666667L51.26307692307692,92.4765625L56.84,78.5703125L61.30153846153846,82.046875L66.87846153846154,61.1875L71.34,62.34635416666666L76.91692307692307,62.34635416666666L81.37846153846154,65.82291666666666L86.95538461538462,46.12239583333334L91.41692307692307,49.59895833333334L96.99384615384616,53.07552083333334L101.45538461538462,53.07552083333334L107.0323076923077,43.8046875L111.49384615384615,39.16927083333334L117.07076923076923,34.53385416666666L121.5323076923077,41.48697916666666L127.10923076923076,34.53385416666666L131.57076923076923,28.739583333333343L137.14769230769232,34.53385416666666L141.60923076923078,32.21614583333334L147.18615384615384,28.739583333333343L151.64769230769232,27.580729166666657L157.2246153846154,31.057291666666657L161.68615384615384,26.421875L167.26307692307694,32.21614583333334L171.7246153846154,28.739583333333343L177.30153846153848,22.9453125L181.7630769230769,29.8984375L187.34,35.69270833333334L191.80153846153846,25.263020833333343L197.37846153846155,34.53385416666666L201.83999999999997,22.9453125L207.41692307692307,24.104166666666657L211.87846153846155,28.739583333333343L217.45538461538462,26.421875L221.9169230769231,26.421875L227.49384615384614,32.21614583333334L231.95538461538462,29.8984375L237.53230769230768,31.057291666666657L241.99384615384616,21.786458333333343L247.5707692307692,27.580729166666657L252.03230769230768,31.057291666666657L257.6092307692308,24.104166666666657L262.0707692307692,25.263020833333343L267.6476923076923,25.263020833333343L272.10923076923075,24.104166666666657" style="fill: none;" fill="none"></path></g><g><path stroke="rgb(51, 187, 238)" stroke-width="2px" d="M26.724615384615387,124.47640492121377L31.186153846153847,112.77839171091715L36.76307692307692,107.03272145589193L41.22461538461538,104.28389447530111L46.801538461538456,101.43172690073649L51.26307692307692,98.84824034372966L56.84,97.44282410939535L61.30153846153846,95.74806213378906L66.87846153846154,94.59066219329834L71.34,93.30925127665202L76.91692307692307,92.64787826538087L81.37846153846154,91.05645122528075L86.95538461538462,90.72576471964518L91.41692307692307,90.622429784139L96.99384615384616,89.34101886749268L101.45538461538462,89.19634316762289L107.0323076923077,88.61764602661133L111.49384615384615,87.8115973154704L117.07076923076923,88.22495403289795L121.5323076923077,87.66692161560059L127.10923076923076,87.5842514038086L131.57076923076923,87.39824059804279L137.14769230769232,86.88154328664145L141.60923076923078,87.3569054921468L147.18615384615384,87.3569054921468L151.64769230769232,87.60491612752277L157.2246153846154,87.2742352803548L161.68615384615384,87.294900004069L167.26307692307694,87.5842514038086L171.7246153846154,86.98488388061523L177.30153846153848,87.04688371022543L181.7630769230769,87.08821881612143L187.34,87.21222979227701L191.80153846153846,86.98488388061523L197.37846153846155,86.92287839253744L201.83999999999997,86.81953779856363L207.41692307692307,87.17089468638102L211.87846153846155,86.77820269266763L217.45538461538462,87.17089468638102L221.9169230769231,86.98488388061523L227.49384615384614,86.94354877471923L231.95538461538462,86.79887307484945L237.53230769230768,86.94354877471923L241.99384615384616,86.65419737497965L247.5707692307692,86.92287839253744L252.03230769230768,86.96421349843344L257.6092307692308,86.73686758677164L262.0707692307692,86.96421349843344L267.6476923076923,86.73686758677164L272.10923076923075,86.53018639882406" style="fill: none;" fill="none"></path></g></g></g></g></g></g><g transform="translate(40, 178)" clip-path="url(#clip_1)"><clipPath id="clip_1"><rect width="290" height="22"></rect></clipPath><g><g><line x1="0" y1="0" x2="0" y2="5" style="visibility: inherit;" fill="rgb(0, 0, 0)" stroke="rgb(204, 204, 204)" stroke-width="1px"></line><line x1="22.30769230769231" y1="0" x2="22.30769230769231" y2="5" style="visibility: inherit;" fill="rgb(0, 0, 0)" stroke="rgb(204, 204, 204)" stroke-width="1px"></line><line x1="44.61538461538462" y1="0" x2="44.61538461538462" y2="5" style="visibility: inherit;" fill="rgb(0, 0, 0)" stroke="rgb(204, 204, 204)" stroke-width="1px"></line><line x1="66.92307692307692" y1="0" x2="66.92307692307692" y2="5" style="visibility: inherit;" fill="rgb(0, 0, 0)" stroke="rgb(204, 204, 204)" stroke-width="1px"></line><line x1="89.23076923076924" y1="0" x2="89.23076923076924" y2="5" style="visibility: inherit;" fill="rgb(0, 0, 0)" stroke="rgb(204, 204, 204)" stroke-width="1px"></line><line x1="111.53846153846155" y1="0" x2="111.53846153846155" y2="5" style="visibility: inherit;" fill="rgb(0, 0, 0)" stroke="rgb(204, 204, 204)" stroke-width="1px"></line><line x1="133.84615384615384" y1="0" x2="133.84615384615384" y2="5" style="visibility: inherit;" fill="rgb(0, 0, 0)" stroke="rgb(204, 204, 204)" stroke-width="1px"></line><line x1="156.15384615384616" y1="0" x2="156.15384615384616" y2="5" style="visibility: inherit;" fill="rgb(0, 0, 0)" stroke="rgb(204, 204, 204)" stroke-width="1px"></line><line x1="178.46153846153848" y1="0" x2="178.46153846153848" y2="5" style="visibility: inherit;" fill="rgb(0, 0, 0)" stroke="rgb(204, 204, 204)" stroke-width="1px"></line><line x1="200.76923076923077" y1="0" x2="200.76923076923077" y2="5" style="visibility: inherit;" fill="rgb(0, 0, 0)" stroke="rgb(204, 204, 204)" stroke-width="1px"></line><line x1="223.0769230769231" y1="0" x2="223.0769230769231" y2="5" style="visibility: inherit;" fill="rgb(0, 0, 0)" stroke="rgb(204, 204, 204)" stroke-width="1px"></line><line x1="245.3846153846154" y1="0" x2="245.3846153846154" y2="5" style="visibility: inherit;" fill="rgb(0, 0, 0)" stroke="rgb(204, 204, 204)" stroke-width="1px"></line><line x1="267.6923076923077" y1="0" x2="267.6923076923077" y2="5" style="visibility: inherit;" fill="rgb(0, 0, 0)" stroke="rgb(204, 204, 204)" stroke-width="1px"></line><line x1="290" y1="0" x2="290" y2="5" style="visibility: inherit;" fill="rgb(0, 0, 0)" stroke="rgb(204, 204, 204)" stroke-width="1px"></line></g><g transform="translate(0, 8)"><text x="0" y="0" dx="0em" dy="0.95em" style="text-anchor: middle; visibility: hidden; font-family: &quot;Helvetica Neue&quot;, sans-serif; font-size: 12px; font-weight: 200;" fill="rgb(50, 49, 63)" stroke="none" stroke-width="1px">-500</text><text x="22.30769230769231" y="0" dx="0em" dy="0.95em" style="text-anchor: middle; visibility: inherit; font-family: &quot;Helvetica Neue&quot;, sans-serif; font-size: 12px; font-weight: 200;" fill="rgb(50, 49, 63)" stroke="none" stroke-width="1px">0</text><text x="44.61538461538462" y="0" dx="0em" dy="0.95em" style="text-anchor: middle; visibility: hidden; font-family: &quot;Helvetica Neue&quot;, sans-serif; font-size: 12px; font-weight: 200;" fill="rgb(50, 49, 63)" stroke="none" stroke-width="1px">500</text><text x="66.92307692307692" y="0" dx="0em" dy="0.95em" style="text-anchor: middle; visibility: inherit; font-family: &quot;Helvetica Neue&quot;, sans-serif; font-size: 12px; font-weight: 200;" fill="rgb(50, 49, 63)" stroke="none" stroke-width="1px">1k</text><text x="89.23076923076924" y="0" dx="0em" dy="0.95em" style="text-anchor: middle; visibility: hidden; font-family: &quot;Helvetica Neue&quot;, sans-serif; font-size: 12px; font-weight: 200;" fill="rgb(50, 49, 63)" stroke="none" stroke-width="1px">1.5k</text><text x="111.53846153846155" y="0" dx="0em" dy="0.95em" style="text-anchor: middle; visibility: inherit; font-family: &quot;Helvetica Neue&quot;, sans-serif; font-size: 12px; font-weight: 200;" fill="rgb(50, 49, 63)" stroke="none" stroke-width="1px">2k</text><text x="133.84615384615384" y="0" dx="0em" dy="0.95em" style="text-anchor: middle; visibility: hidden; font-family: &quot;Helvetica Neue&quot;, sans-serif; font-size: 12px; font-weight: 200;" fill="rgb(50, 49, 63)" stroke="none" stroke-width="1px">2.5k</text><text x="156.15384615384616" y="0" dx="0em" dy="0.95em" style="text-anchor: middle; visibility: inherit; font-family: &quot;Helvetica Neue&quot;, sans-serif; font-size: 12px; font-weight: 200;" fill="rgb(50, 49, 63)" stroke="none" stroke-width="1px">3k</text><text x="178.46153846153848" y="0" dx="0em" dy="0.95em" style="text-anchor: middle; visibility: hidden; font-family: &quot;Helvetica Neue&quot;, sans-serif; font-size: 12px; font-weight: 200;" fill="rgb(50, 49, 63)" stroke="none" stroke-width="1px">3.5k</text><text x="200.76923076923077" y="0" dx="0em" dy="0.95em" style="text-anchor: middle; visibility: inherit; font-family: &quot;Helvetica Neue&quot;, sans-serif; font-size: 12px; font-weight: 200;" fill="rgb(50, 49, 63)" stroke="none" stroke-width="1px">4k</text><text x="223.0769230769231" y="0" dx="0em" dy="0.95em" style="text-anchor: middle; visibility: hidden; font-family: &quot;Helvetica Neue&quot;, sans-serif; font-size: 12px; font-weight: 200;" fill="rgb(50, 49, 63)" stroke="none" stroke-width="1px">4.5k</text><text x="245.3846153846154" y="0" dx="0em" dy="0.95em" style="text-anchor: middle; visibility: inherit; font-family: &quot;Helvetica Neue&quot;, sans-serif; font-size: 12px; font-weight: 200;" fill="rgb(50, 49, 63)" stroke="none" stroke-width="1px">5k</text><text x="267.6923076923077" y="0" dx="0em" dy="0.95em" style="text-anchor: middle; visibility: hidden; font-family: &quot;Helvetica Neue&quot;, sans-serif; font-size: 12px; font-weight: 200;" fill="rgb(50, 49, 63)" stroke="none" stroke-width="1px">5.5k</text><text x="290" y="0" dx="0em" dy="0.95em" style="text-anchor: middle; visibility: hidden; font-family: &quot;Helvetica Neue&quot;, sans-serif; font-size: 12px; font-weight: 200;" fill="rgb(50, 49, 63)" stroke="none" stroke-width="1px">6k</text></g><line x1="0" y1="0" x2="290" y2="0" fill="rgb(0, 0, 0)" stroke="rgb(204, 204, 204)" stroke-width="1px"></line></g></g></g></g></svg>