<svg viewBox="0 0 330 200" xmlns="http://www.w3.org/2000/svg"><g><g><g><g><g><line x1="60" y1="174.10625000000007" x2="55" y2="174.10625000000007" style="visibility: inherit;" fill="rgb(0, 0, 0)" stroke="rgb(204, 204, 204)" stroke-width="1px"></line><line x1="60" y1="149.35312500000003" x2="55" y2="149.35312500000003" style="visibility: inherit;" fill="rgb(0, 0, 0)" stroke="rgb(204, 204, 204)" stroke-width="1px"></line><line x1="60" y1="124.60000000000001" x2="55" y2="124.60000000000001" style="visibility: inherit;" fill="rgb(0, 0, 0)" stroke="rgb(204, 204, 204)" stroke-width="1px"></line><line x1="60" y1="99.84687499999998" x2="55" y2="99.84687499999998" style="visibility: inherit;" fill="rgb(0, 0, 0)" stroke="rgb(204, 204, 204)" stroke-width="1px"></line><line x1="60" y1="75.09374999999994" x2="55" y2="75.09374999999994" style="visibility: inherit;" fill="rgb(0, 0, 0)" stroke="rgb(204, 204, 204)" stroke-width="1px"></line><line x1="60" y1="50.3406249999999" x2="55" y2="50.3406249999999" style="visibility: inherit;" fill="rgb(0, 0, 0)" stroke="rgb(204, 204, 204)" stroke-width="1px"></line><line x1="60" y1="25.587499999999864" x2="55" y2="25.587499999999864" style="visibility: inherit;" fill="rgb(0, 0, 0)" stroke="rgb(204, 204, 204)" stroke-width="1px"></line><line x1="60" y1="0.8343749999998522" x2="55" y2="0.8343749999998522" style="visibility: inherit;" fill="rgb(0, 0, 0)" stroke="rgb(204, 204, 204)" stroke-width="1px"></line></g><g transform="translate(50, 0)"><text x="0" y="174.10625000000007" dx="0em" dy="0.3em" style="text-anchor: end; visibility: hidden; font-family: &quot;Helvetica Neue&quot;, sans-serif; font-size: 12px; font-weight: 200;" fill="rgb(50, 49, 63)" stroke="none" stroke-width="1px">-0.04</text><text x="0" y="149.35312500000003" dx="0em" dy="0.3em" style="text-anchor: end; visibility: inherit; font-family: &quot;Helvetica Neue&quot;, sans-serif; font-size: 12px; font-weight: 200;" fill="rgb(50, 49, 63)" stroke="none" stroke-width="1px">-0.03</text><text x="0" y="124.60000000000001" dx="0em" dy="0.3em" style="text-anchor: end; visibility: inherit; font-family: &quot;Helvetica Neue&quot;, sans-serif; font-size: 12px; font-weight: 200;" fill="rgb(50, 49, 63)" stroke="none" stroke-width="1px">-0.02</text><text x="0" y="99.84687499999998" dx="0em" dy="0.3em" style="text-anchor: end; visibility: inherit; font-family: &quot;Helvetica Neue&quot;, sans-serif; font-size: 12px; font-weight: 200;" fill="rgb(50, 49, 63)" stroke="none" stroke-width="1px">-0.01</text><text x="0" y="75.09374999999994" dx="0em" dy="0.3em" style="text-anchor: end; visibility: inherit; font-family: &quot;Helvetica Neue&quot;, sans-serif; font-size: 12px; font-weight: 200;" fill="rgb(50, 49, 63)" stroke="none" stroke-width="1px">0</text><text x="0" y="50.3406249999999" dx="0em" dy="0.3em" style="text-anchor: end; visibility: inherit; font-family: &quot;Helvetica Neue&quot;, sans-serif; font-size: 12px; font-weight: 200;" fill="rgb(50, 49, 63)" stroke="none" stroke-width="1px">0.01</text><text x="0" y="25.587499999999864" dx="0em" dy="0.3em" style="text-anchor: end; visibility: inherit; font-family: &quot;Helvetica Neue&quot;, sans-serif; font-size: 12px; font-weight: 200;" fill="rgb(50, 49, 63)" stroke="none" stroke-width="1px">0.02</text><text x="0" y="0.8343749999998522" dx="0em" dy="0.3em" style="text-anchor: end; visibility: hidden; font-family: &quot;Helvetica Neue&quot;, sans-serif; font-size: 12px; font-weight: 200;" fill="rgb(50, 49, 63)" stroke="none" stroke-width="1px">0.03</text></g><line x1="60" y1="0" x2="60" y2="178" fill="rgb(0, 0, 0)" stroke="rgb(204, 204, 204)" stroke-width="1px"></line></g></g><g transform="translate(60, 0)" clip-path="url(#clip_0)"><clipPath id="clip_0"><rect width="270" height="178"></rect></clipPath><g><g><g><line x1="4.500000000000007" y1="0" x2="4.500000000000007" y2="178" fill="rgb(0, 0, 0)" stroke="rgb(60, 60, 60)" stroke-width="1px" opacity="0.25"></line><line x1="25.500000000000007" y1="0" x2="25.500000000000007" y2="178" fill="rgb(0, 0, 0)" stroke="rgb(60, 60, 60)" stroke-width="1px" opacity="0.25"></line><line x1="46.5" y1="0" x2="46.5" y2="178" fill="rgb(0, 0, 0)" stroke="rgb(60, 60, 60)" stroke-width="1px" opacity="0.25"></line><line x1="67.5" y1="0" x2="67.5" y2="178" fill="rgb(0, 0, 0)" stroke="rgb(60, 60, 60)" stroke-width="1px" opacity="0.25"></line><line x1="88.5" y1="0" x2="88.5" y2="178" fill="rgb(0, 0, 0)" stroke="rgb(60, 60, 60)" stroke-width="1px" opacity="0.25"></line><line x1="109.5" y1="0" x2="109.5" y2="178" fill="rgb(0, 0, 0)" stroke="rgb(60, 60, 60)" stroke-width="1px" opacity="0.25"></line><line x1="130.5" y1="0" x2="130.5" y2="178" fill="rgb(0, 0, 0)" stroke="rgb(60, 60, 60)" stroke-width="1px" opacity="0.25"></line><line x1="151.5" y1="0" x2="151.5" y2="178" fill="rgb(0, 0, 0)" stroke="rgb(60, 60, 60)" stroke-width="1px" opacity="0.25"></line><line x1="172.49999999999994" y1="0" x2="172.49999999999994" y2="178" fill="rgb(0, 0, 0)" stroke="rgb(60, 60, 60)" stroke-width="1px" opacity="0.25"></line><line x1="193.49999999999997" y1="0" x2="193.49999999999997" y2="178" fill="rgb(0, 0, 0)" stroke="rgb(60, 60, 60)" stroke-width="1px" opacity="0.25"></line><line x1="214.49999999999994" y1="0" x2="214.49999999999994" y2="178" fill="rgb(0, 0, 0)" stroke="rgb(60, 60, 60)" stroke-width="1px" opacity="0.25"></line><line x1="235.49999999999997" y1="0" x2="235.49999999999997" y2="178" fill="rgb(0, 0, 0)" stroke="rgb(60, 60, 60)" stroke-width="1px" opacity="0.25"></line><line x1="256.49999999999994" y1="0" x2="256.49999999999994" y2="178" fill="rgb(0, 0, 0)" stroke="rgb(60, 60, 60)" stroke-width="1px" opacity="0.25"></line></g><g><line x1="0" y1="174.10625000000007" x2="270" y2="174.10625000000007" fill="rgb(0, 0, 0)" stroke="rgb(60, 60, 60)" stroke-width="1px" opacity="0.25"></line><line x1="0" y1="149.35312500000003" x2="270" y2="149.35312500000003" fill="rgb(0, 0, 0)" stroke="rgb(60, 60, 60)" stroke-width="1px" opacity="0.25"></line><line x1="0" y1="124.60000000000001" x2="270" y2="124.60000000000001" fill="rgb(0, 0, 0)" stroke="rgb(60, 60, 60)" stroke-width="1px" opacity="0.25"></line><line x1="0" y1="99.84687499999998" x2="270" y2="99.84687499999998" fill="rgb(0, 0, 0)" stroke="rgb(60, 60, 60)" stroke-width="1px" opacity="0.25"></line><line x1="0" y1="75.09374999999994" x2="270" y2="75.09374999999994" fill="rgb(0, 0, 0)" stroke="rgb(60, 60, 60)" stroke-width="1px" opacity="0.25"></line><line x1="0" y1="50.3406249999999" x2="270" y2="50.3406249999999" fill="rgb(0, 0, 0)" stroke="rgb(60, 60, 60)" stroke-width="1px" opacity="0.25"></line><line x1="0" y1="25.587499999999864" x2="270" y2="25.587499999999864" fill="rgb(0, 0, 0)" stroke="rgb(60, 60, 60)" stroke-width="1px" opacity="0.25"></line><line x1="0" y1="0.8343749999998522" x2="270" y2="0.8343749999998522" fill="rgb(0, 0, 0)" stroke="rgb(60, 60, 60)" stroke-width="1px" opacity="0.25"></line></g></g></g><g><g><line x1="0" y1="75.09374999999994" x2="270" y2="75.09374999999994" fill="rgb(0, 0, 0)" stroke="rgb(153, 153, 153)" stroke-width="1.5px"></line></g></g><g><g><line x1="67.5" y1="0" x2="67.5" y2="178" fill="rgb(0, 0, 0)" stroke="rgb(153, 153, 153)" stroke-width="1.5px"></line></g></g><g><g><g><g><g><path stroke="rgb(204, 51, 17)" stroke-width="2px" d="M69.579,37.22931121569118L71.67899999999999,39.28611849600557L74.304,42.13213087538156L76.404,44.957849214650736L79.02900000000001,46.424817871714936L81.129,48.46073490409853L83.75399999999999,50.38560336218215L85.85399999999998,51.572174922638325L88.479,53.557680214931324L90.579,54.799237020743334L93.20400000000001,55.15119662795982L95.304,55.85571923971045L97.92899999999999,57.7736268665295L100.029,58.6921738469933L102.654,59.43134265538876L104.75399999999999,59.99451871209074L107.379,60.60381937403841L109.479,62.43300803533185L112.10399999999998,63.29573560984383L114.204,63.983478315050846L116.829,64.57103294601863L118.92899999999999,65.26377817938852L121.554,65.46821989417334L123.654,66.04866271526912L126.27899999999998,66.51536597022786L128.379,66.53278572572383L131.004,66.43873893401219L133.10399999999998,66.97905252664314L135.72899999999998,66.59474078456924L137.82899999999998,66.69900013050369L140.454,67.41340328504342L142.554,67.07004113536641L145.179,66.22839931600005L147.279,67.02131667430221L149.90399999999997,66.49615602071115L152.00399999999996,67.22790752955883L154.629,67.6615065919539L156.72899999999998,67.75525390942654L159.35399999999998,67.66736666541706L161.45399999999998,67.51520057572526L164.07899999999998,67.23870210553744L166.17899999999997,67.19175955251899L168.804,67.29189675533745L170.904,67.84729731761102L173.52899999999994,68.00818128405918L175.629,67.94541443814342L178.25399999999996,67.99820080564909L180.35399999999998,67.67923061580662L182.97899999999996,67.60577248047792L185.07899999999995,68.07135120693076" style="fill: none;" fill="none"></path></g><g><path stroke="rgb(51, 187, 238)" stroke-width="2px" d="M69.579,36.84029863018068L71.67899999999999,39.07342067907294L74.304,41.02287290762027L76.404,42.48193418960781L79.02900000000001,43.68228506361257L81.129,44.614803974344625L83.75399999999999,45.39084231949818L85.85399999999998,45.9893940534721L88.479,46.49474796744667L90.579,46.90861349803831L93.20400000000001,47.240509661013675L95.304,47.54160863103783L97.92899999999999,47.73578383658642L100.029,47.868228393024225L102.654,47.956440036781544L104.75399999999999,47.9923962405976L107.379,48.009143624776016L109.479,48.00382237635014L112.10399999999998,47.92055230284379L114.204,47.80462959440101L116.829,47.75618014868212L118.92899999999999,47.720705069470995L121.554,47.6821644450811L123.654,47.64604929592085L126.27899999999998,47.62066690493677L128.379,47.595989399834L131.004,47.53256563728857L133.10399999999998,47.531586432548664L135.72899999999998,47.54869451002449L137.82899999999998,47.507725111564895L140.454,47.48278384919004L142.554,47.45999946677978L145.179,47.38510152907966L147.279,47.365841205639725L149.90399999999997,47.337751296692744L152.00399999999996,47.28560022126783L154.629,47.22612941282907L156.72899999999998,47.21816971707895L159.35399999999998,47.17531379400489L161.45399999999998,47.16445291992528L164.07899999999998,47.15356459723526L166.17899999999997,47.14354412398495L168.804,47.138218823732416L170.904,47.124044814231496L173.52899999999994,47.12875723711204L175.629,47.09043851711354L178.25399999999996,47.04993796110483L180.35399999999998,47.0478811451849L182.97899999999996,47.04037291193333L185.07899999999995,47.06066208953021" style="fill: none;" fill="none"></path></g></g></g></g><g opacity="0.2"><g><g><g><path stroke="rgb(204, 51, 17)" stroke-width="2px" d="M69.579,37.22931121569118L71.67899999999999,40.520202864194204L74.304,44.86430275958256L76.404,48.280893981631294L79.02900000000001,48.340092150377956L81.129,51.27714109001673L83.75399999999999,53.138196055137L85.85399999999998,53.30220764887045L88.479,56.48591485651551L90.579,56.642804181377784L93.20400000000001,55.67594379105131L95.304,56.908669176394966L97.92899999999999,60.64422600559183L100.029,60.068194788531315L102.654,60.539227002795L104.75399999999999,60.83888560175538L107.379,61.51751253133983L109.479,65.1763265964691L112.10399999999998,64.5896955437492L114.204,65.01502951045399L116.829,65.45233266957797L118.92899999999999,66.30287323436636L121.554,65.77487843000557L123.654,66.91932007101417L126.27899999999998,67.21541753553896L128.379,66.5589152846805L131.004,66.2976689870847L133.10399999999998,67.78952208608092L135.72899999999998,66.01827352546383L137.82899999999998,66.8553890917828L140.454,68.48500777994917L142.554,66.55499797916849L145.179,64.96593668742565L147.279,68.21069265496038L149.90399999999997,65.70841506289429L152.00399999999996,68.32553477396135L154.629,68.311905178838L156.72899999999998,67.8958748847653L159.35399999999998,67.53553579989233L161.45399999999998,67.28695144169609L164.07899999999998,66.82395440081012L166.17899999999997,67.1213457230478L168.804,67.44210255949287L170.904,68.68039816078084L173.52899999999994,68.2495072336896L175.629,67.85126416927955L178.25399999999996,68.07738035690267L180.35399999999998,67.20077533106081L182.97899999999996,67.49558527748735L185.07899999999995,68.76971929660061" style="fill: none;" fill="none"></path></g><g><path stroke="rgb(51, 187, 238)" stroke-width="2px" d="M69.579,36.84029863018068L71.67899999999999,40.41329390840829L74.304,42.89434704702572L76.404,44.19779025722519L79.02900000000001,45.24946316471315L81.129,45.90481333469498L83.75399999999999,46.50058956968124L85.85399999999998,46.862088227702685L88.479,47.24004683061494L90.579,47.5231555774225L93.20400000000001,47.735343631706115L95.304,47.99161851877571L97.92899999999999,48.02641262917305L100.029,48.06663575500707L102.654,48.088653812941544L104.75399999999999,48.046305187221066L107.379,48.03425761411191L109.479,47.995841854775705L112.10399999999998,47.79565987794186L114.204,47.630756127531555L116.829,47.68350863718652L118.92899999999999,47.66749361797693L121.554,47.62435426941366L123.654,47.591876999998846L126.27899999999998,47.58259349886785L128.379,47.558973247418095L131.004,47.43743015575447L133.10399999999998,47.53011762694214L135.72899999999998,47.574356610479214L137.82899999999998,47.44627103651865L140.454,47.445371963898566L142.554,47.425822897697714L145.179,47.272754631470804L147.279,47.33695072185938L149.90399999999997,47.29561643447951L152.00399999999996,47.20737360947524L154.629,47.13692320109104L156.72899999999998,47.20623017352764L159.35399999999998,47.11102990963255L161.45399999999998,47.148161608842116L164.07899999999998,47.13723211322204L166.17899999999997,47.12851341412161L168.804,47.13023087335742L170.904,47.10278379998627L173.52899999999994,47.13582587143165L175.629,47.032960437121716L178.25399999999996,46.98918712709556L180.35399999999998,47.04479592130511L182.97899999999996,47.02911056205622L185.07899999999995,47.09109585592515" style="fill: none;" fill="none"></path></g></g></g></g></g></g><g transform="translate(60, 178)" clip-path="url(#clip_1)"><clipPath id="clip_1"><rect width="270" height="22"></rect></clipPath><g><g><line x1="4.500000000000007" y1="0" x2="4.500000000000007" y2="5" style="visibility: inherit;" fill="rgb(0, 0, 0)" stroke="rgb(204, 204, 204)" stroke-width="1px"></line><line x1="25.500000000000007" y1="0" x2="25.500000000000007" y2="5" style="visibility: inherit;" fill="rgb(0, 0, 0)" stroke="rgb(204, 204, 204)" stroke-width="1px"></line><line x1="46.5" y1="0" x2="46.5" y2="5" style="visibility: inherit;" fill="rgb(0, 0, 0)" stroke="rgb(204, 204, 204)" stroke-width="1px"></line><line x1="67.5" y1="0" x2="67.5" y2="5" style="visibility: inherit;" fill="rgb(0, 0, 0)" stroke="rgb(204, 204, 204)" stroke-width="1px"></line><line x1="88.5" y1="0" x2="88.5" y2="5" style="visibility: inherit;" fill="rgb(0, 0, 0)" stroke="rgb(204, 204, 204)" stroke-width="1px"></line><line x1="109.5" y1="0" x2="109.5" y2="5" style="visibility: inherit;" fill="rgb(0, 0, 0)" stroke="rgb(204, 204, 204)" stroke-width="1px"></line><line x1="130.5" y1="0" x2="130.5" y2="5" style="visibility: inherit;" fill="rgb(0, 0, 0)" stroke="rgb(204, 204, 204)" stroke-width="1px"></line><line x1="151.5" y1="0" x2="151.5" y2="5" style="visibility: inherit;" fill="rgb(0, 0, 0)" stroke="rgb(204, 204, 204)" stroke-width="1px"></line><line x1="172.49999999999994" y1="0" x2="172.49999999999994" y2="5" style="visibility: inherit;" fill="rgb(0, 0, 0)" stroke="rgb(204, 204, 204)" stroke-width="1px"></line><line x1="193.49999999999997" y1="0" x2="193.49999999999997" y2="5" style="visibility: inherit;" fill="rgb(0, 0, 0)" stroke="rgb(204, 204, 204)" stroke-width="1px"></line><line x1="214.49999999999994" y1="0" x2="214.49999999999994" y2="5" style="visibility: inherit;" fill="rgb(0, 0, 0)" stroke="rgb(204, 204, 204)" stroke-width="1px"></line><line x1="235.49999999999997" y1="0" x2="235.49999999999997" y2="5" style="visibility: inherit;" fill="rgb(0, 0, 0)" stroke="rgb(204, 204, 204)" stroke-width="1px"></line><line x1="256.49999999999994" y1="0" x2="256.49999999999994" y2="5" style="visibility: inherit;" fill="rgb(0, 0, 0)" stroke="rgb(204, 204, 204)" stroke-width="1px"></line></g><g transform="translate(0, 8)"><text x="4.500000000000007" y="0" dx="0em" dy="0.95em" style="text-anchor: middle; visibility: hidden; font-family: &quot;Helvetica Neue&quot;, sans-serif; font-size: 12px; font-weight: 200;" fill="rgb(50, 49, 63)" stroke="none" stroke-width="1px">-3k</text><text x="25.500000000000007" y="0" dx="0em" dy="0.95em" style="text-anchor: middle; visibility: inherit; font-family: &quot;Helvetica Neue&quot;, sans-serif; font-size: 12px; font-weight: 200;" fill="rgb(50, 49, 63)" stroke="none" stroke-width="1px">-2k</text><text x="46.5" y="0" dx="0em" dy="0.95em" style="text-anchor: middle; visibility: hidden; font-family: &quot;Helvetica Neue&quot;, sans-serif; font-size: 12px; font-weight: 200;" fill="rgb(50, 49, 63)" stroke="none" stroke-width="1px">-1k</text><text x="67.5" y="0" dx="0em" dy="0.95em" style="text-anchor: middle; visibility: inherit; font-family: &quot;Helvetica Neue&quot;, sans-serif; font-size: 12px; font-weight: 200;" fill="rgb(50, 49, 63)" stroke="none" stroke-width="1px">0</text><text x="88.5" y="0" dx="0em" dy="0.95em" style="text-anchor: middle; visibility: hidden; font-family: &quot;Helvetica Neue&quot;, sans-serif; font-size: 12px; font-weight: 200;" fill="rgb(50, 49, 63)" stroke="none" stroke-width="1px">1k</text><text x="109.5" y="0" dx="0em" dy="0.95em" style="text-anchor: middle; visibility: inherit; font-family: &quot;Helvetica Neue&quot;, sans-serif; font-size: 12px; font-weight: 200;" fill="rgb(50, 49, 63)" stroke="none" stroke-width="1px">2k</text><text x="130.5" y="0" dx="0em" dy="0.95em" style="text-anchor: middle; visibility: hidden; font-family: &quot;Helvetica Neue&quot;, sans-serif; font-size: 12px; font-weight: 200;" fill="rgb(50, 49, 63)" stroke="none" stroke-width="1px">3k</text><text x="151.5" y="0" dx="0em" dy="0.95em" style="text-anchor: middle; visibility: inherit; font-family: &quot;Helvetica Neue&quot;, sans-serif; font-size: 12px; font-weight: 200;" fill="rgb(50, 49, 63)" stroke="none" stroke-width="1px">4k</text><text x="172.49999999999994" y="0" dx="0em" dy="0.95em" style="text-anchor: middle; visibility: hidden; font-family: &quot;Helvetica Neue&quot;, sans-serif; font-size: 12px; font-weight: 200;" fill="rgb(50, 49, 63)" stroke="none" stroke-width="1px">5k</text><text x="193.49999999999997" y="0" dx="0em" dy="0.95em" style="text-anchor: middle; visibility: inherit; font-family: &quot;Helvetica Neue&quot;, sans-serif; font-size: 12px; font-weight: 200;" fill="rgb(50, 49, 63)" stroke="none" stroke-width="1px">6k</text><text x="214.49999999999994" y="0" dx="0em" dy="0.95em" style="text-anchor: middle; visibility: hidden; font-family: &quot;Helvetica Neue&quot;, sans-serif; font-size: 12px; font-weight: 200;" fill="rgb(50, 49, 63)" stroke="none" stroke-width="1px">7k</text><text x="235.49999999999997" y="0" dx="0em" dy="0.95em" style="text-anchor: middle; visibility: inherit; font-family: &quot;Helvetica Neue&quot;, sans-serif; font-size: 12px; font-weight: 200;" fill="rgb(50, 49, 63)" stroke="none" stroke-width="1px">8k</text><text x="256.49999999999994" y="0" dx="0em" dy="0.95em" style="text-anchor: middle; visibility: hidden; font-family: &quot;Helvetica Neue&quot;, sans-serif; font-size: 12px; font-weight: 200;" fill="rgb(50, 49, 63)" stroke="none" stroke-width="1px">9k</text></g><line x1="0" y1="0" x2="270" y2="0" fill="rgb(0, 0, 0)" stroke="rgb(204, 204, 204)" stroke-width="1px"></line></g></g></g></g></svg>